# xmcd
#
# Track frame offsets:
#	150
#	22502
#	37514
#	54062
#	69673
#	88838
#	106893
#	119628
#	138456
#	153483
#	171748
#	189015
#
# Disc length: 2704 seconds
#
# Revision: 1
# Processed by: cddbd v1.5.2PL0 Copyright (c) Steve Scherf et al.
# Submitted via: audiograbber 1.83.01
#
DISCID=910a8e0c
DTITLE=Kyla Brox - Grey Sky Blue
DYEAR=2009
DGENRE=Soul
TTITLE0=All breaking down
TTITLE1=Say you do
TTITLE2=Kasbah
TTITLE3=Cramp your style
TTITLE4=Since I fell for you
TTITLE5=Like the sky
TTITLE6=Grey sky blue
TTITLE7=Get ready
TTITLE8=Shaken and stirred
TTITLE9=Why so cold?
TTITLE10=Rest assured
TTITLE11=Feel my pain
EXTD=
EXTT0=
EXTT1=
EXTT2=
EXTT3=
EXTT4=
EXTT5=
EXTT6=
EXTT7=
EXTT8=
EXTT9=
EXTT10=
EXTT11=
PLAYORDER=
